REM MD5 b0cb6fa5b0e4393470f6421f7a34962a
FILE "Community Pom - Omoide o Dakishimete (Japan).bin" BINARY
  TRACK 01 MODE2/2352
    INDEX 01 00:00:00
  TRACK 02 AUDIO
    INDEX 00 09:25:69
    INDEX 01 09:27:69
  TRACK 03 AUDIO
    INDEX 00 10:08:15
    INDEX 01 10:10:15
  TRACK 04 AUDIO
    INDEX 00 11:21:22
    INDEX 01 11:23:22
  TRACK 05 AUDIO
    INDEX 00 14:35:50
    INDEX 01 14:37:50
REM LEADOUT 17:37:52
